<?xml version="1.0" standalone="no"?>
<!DOCTYPE svg PUBLIC "-//W3C//DTD SVG 20010904//EN"
 "http://www.w3.org/TR/2001/REC-SVG-20010904/DTD/svg10.dtd">
<svg version="1.0" xmlns="http://www.w3.org/2000/svg"
 width="790.000000pt" height="433.000000pt" viewBox="0 0 790.000000 433.000000"
 preserveAspectRatio="xMidYMid meet">
<metadata>
Created by potrace 1.16, written by Peter Selinger 2001-2019
</metadata>
<g transform="translate(0.000000,433.000000) scale(0.100000,-0.100000)"
fill="#000000" stroke="none">
<path d="M0 2865 l0 -1465 58 6 c31 3 86 15 121 25 35 10 72 19 82 19 21 0 25
15 7 24 -7 4 4 4 25 2 20 -3 37 -1 37 5 0 5 -5 9 -11 9 -5 0 -8 4 -5 9 3 5
-11 17 -32 27 -48 22 -30 28 32 10 58 -18 122 -14 143 7 15 15 14 17 -10 28
-15 7 -24 15 -22 19 8 13 -55 30 -112 30 -32 0 -60 5 -68 13 -7 8 -41 20 -76
27 l-62 13 49 13 c27 7 59 13 72 14 26 0 30 20 3 20 -24 0 -161 60 -161 71 0
5 23 11 50 15 28 4 49 8 47 10 -2 2 -30 9 -63 15 -97 18 -100 31 -5 25 58 -3
80 -1 70 6 -10 6 9 8 58 4 51 -3 81 -1 99 9 14 7 22 15 17 18 -19 12 -138 37
-176 38 -23 0 -51 4 -62 9 -19 7 -18 8 5 13 38 9 52 9 223 7 105 -1 157 2 157
9 0 6 11 11 24 11 13 0 38 3 55 6 23 5 29 10 21 19 -13 16 116 31 135 15 6 -5
33 -21 60 -35 43 -24 52 -25 103 -15 79 14 119 13 126 -5 3 -8 15 -15 27 -15
26 0 20 -24 -7 -28 -10 -2 -51 -10 -89 -18 -58 -12 -71 -18 -71 -35 0 -10 4
-19 8 -19 4 0 8 -4 8 -10 0 -5 -10 -10 -22 -10 -22 -1 -22 -1 -5 -14 26 -20 8
-27 -76 -30 -48 -2 -84 -9 -107 -22 l-35 -19 288 -6 c159 -4 291 -10 294 -13
4 -3 -16 -6 -43 -7 -27 0 -56 -2 -64 -3 -8 -2 -44 -6 -80 -10 -106 -12 -156
-43 -117 -74 6 -5 37 -13 67 -16 30 -4 62 -11 70 -17 11 -7 -1 -8 -40 -4 l-55
6 22 -19 c12 -11 20 -22 17 -25 -4 -3 19 -20 50 -37 31 -18 56 -34 56 -36 0
-3 -9 0 -19 6 -26 13 -38 13 -24 -1 7 -7 36 -13 65 -15 29 -1 71 -7 93 -12 38
-9 37 -10 -28 -11 -43 -1 -66 -5 -62 -11 3 -5 -2 -10 -12 -10 -11 0 -24 -5
-31 -12 -7 -7 -12 -9 -12 -6 0 4 7 14 16 22 14 15 10 16 -45 16 -60 0 -86 -12
-53 -25 24 -11 143 -38 237 -55 33 -6 84 -16 114 -22 l55 -10 -34 -14 c-44
-19 -65 -46 -42 -56 9 -4 30 -7 46 -7 43 -1 97 -23 92 -37 -3 -8 12 -19 37
-28 l42 -14 -45 -2 -45 -2 40 -9 c22 -4 78 -8 125 -9 47 -1 94 -5 105 -10 11
-4 -51 -7 -145 -5 -91 2 -147 1 -125 -1 22 -2 60 -7 83 -10 42 -5 43 -6 26
-25 -10 -11 -12 -19 -6 -19 7 0 12 -5 12 -11 0 -5 -4 -7 -10 -4 -5 3 -10 0
-10 -8 0 -19 -41 -35 -115 -46 -33 -5 -47 -9 -30 -10 17 -1 36 -5 44 -10 9 -6
-22 -11 -85 -16 -136 -9 -139 -10 -54 -22 l75 -10 -133 -2 c-173 -1 -166 -22
13 -39 67 -7 68 -7 30 -14 -22 -4 -58 -8 -80 -9 -31 0 -35 -2 -20 -9 15 -6 6
-9 -35 -11 l-55 -4 70 -21 c39 -12 93 -26 120 -30 47 -8 48 -8 15 -11 -62 -6
-78 -12 -76 -30 1 -15 -10 -19 -69 -24 -38 -3 -59 -6 -45 -7 65 -5 90 -24 48
-38 -20 -6 -20 -8 -5 -19 15 -10 12 -13 -22 -23 -21 -7 -54 -12 -72 -12 -52
-1 -15 -16 56 -24 94 -11 166 -27 160 -36 -3 -5 16 -12 42 -16 27 -4 57 -10
68 -14 17 -6 15 -8 -12 -14 -18 -4 -33 -12 -33 -17 0 -8 56 -37 105 -54 20 -6
19 -7 -3 -25 -22 -18 -22 -19 -2 -25 30 -9 16 -22 -33 -30 -23 -4 -46 -10 -52
-13 -14 -9 32 -20 84 -21 26 -1 48 -7 55 -16 6 -8 28 -20 50 -27 22 -7 50 -27
64 -45 l24 -33 -23 -9 -24 -9 25 -5 c14 -3 86 -9 160 -12 74 -4 138 -9 143
-12 4 -3 0 -11 -9 -17 -15 -11 -13 -12 13 -9 17 3 34 0 37 -6 4 -6 1 -11 -6
-11 -7 0 -2 -9 12 -20 l25 -19 -32 -7 c-18 -3 -30 -10 -27 -15 3 -5 0 -9 -5
-9 -6 0 -11 -4 -11 -10 0 -5 12 -10 26 -10 20 0 25 -4 20 -16 -3 -9 -6 -18 -6
-20 0 -2 -21 -5 -47 -5 l-48 -1 40 -9 c22 -4 1380 -8 3018 -8 l2977 -1 0 2165
0 2165 -3950 0 -3950 0 0 -1465z m4881 -982 c3 -360 -3 -555 -18 -597 -19 -57
-59 -111 -104 -145 l-39 -28 235 -7 c129 -3 242 -9 252 -13 10 -3 -8 17 -39
46 -92 84 -98 108 -98 421 l0 260 95 0 95 0 1 -67 c4 -367 6 -398 23 -431 52
-100 207 -95 258 8 16 30 18 66 18 263 l0 227 100 0 100 0 1 -77 c0 -43 1
-204 2 -358 l2 -280 88 -3 87 -3 0 361 0 360 100 0 100 0 0 -40 c0 -47 8 -49
41 -14 41 45 95 64 187 64 62 0 92 -5 120 -19 51 -27 97 -77 123 -136 22 -47
23 -67 27 -317 l4 -268 37 0 c32 0 45 9 105 69 l68 69 -33 68 c-31 63 -34 76
-34 164 0 82 4 103 27 153 34 71 109 146 185 184 50 24 72 28 162 31 94 4 111
1 174 -23 l69 -28 57 57 56 56 43 -42 42 -43 -55 -55 -54 -55 37 -74 c34 -70
37 -81 37 -165 0 -80 -3 -98 -29 -151 -38 -77 -115 -154 -189 -189 -69 -32
-172 -46 -356 -46 -122 0 -126 -1 -153 -27 l-28 -27 -27 26 -28 26 -1155 9
c-1496 11 -2540 23 -2915 32 -165 5 -401 11 -525 14 -124 3 -256 6 -295 8
l-70 2 95 7 c115 9 319 10 270 1 -19 -3 213 -7 515 -8 303 -1 578 -5 613 -8
61 -7 62 -6 62 19 0 19 -6 25 -25 28 -33 4 -33 22 0 26 25 3 25 4 25 94 l0 90
-41 -37 c-30 -27 -44 -34 -52 -26 -8 8 0 22 27 50 l39 40 -59 3 c-44 2 -59 7
-59 18 0 11 15 16 59 18 l59 3 -39 40 c-25 26 -35 42 -28 49 7 7 21 -2 44 -25
19 -19 37 -35 41 -35 5 0 9 21 11 48 2 26 8 47 13 47 6 0 11 -21 13 -47 2 -27
6 -48 11 -48 4 0 22 16 41 35 19 19 38 35 42 35 19 0 6 -39 -23 -66 l-31 -29
54 -5 c38 -4 53 -9 53 -20 0 -11 -14 -16 -53 -18 l-53 -3 36 -41 c27 -29 34
-43 26 -51 -8 -8 -21 -1 -49 26 -21 20 -41 37 -45 37 -4 0 -6 -39 -5 -87 3
-88 3 -88 31 -91 34 -4 37 -32 3 -32 -28 0 -39 -11 -31 -33 5 -12 80 -15 478
-21 260 -3 488 -9 507 -12 33 -6 31 -3 -25 30 -33 20 -73 50 -88 68 l-29 31
66 66 67 67 42 -42 c92 -92 224 -73 266 39 7 18 11 151 11 363 l0 334 100 0
100 0 1 -177z"/>
<path d="M6247 1656 c-50 -18 -67 -34 -88 -81 -16 -35 -19 -69 -19 -262 l0
-223 150 0 150 0 0 233 c0 270 -4 286 -80 325 -51 25 -61 26 -113 8z"/>
<path d="M7117 1656 c-86 -31 -147 -111 -147 -192 0 -51 10 -84 24 -84 12 0
266 250 266 262 0 8 -67 28 -90 28 -8 -1 -32 -7 -53 -14z"/>
<path d="M7210 1415 c-74 -74 -132 -136 -130 -138 37 -32 124 -36 179 -7 68
34 121 118 121 192 0 29 -19 88 -29 88 -3 0 -67 -61 -141 -135z"/>
<path d="M0 765 l0 -65 64 0 c60 0 219 -25 324 -50 23 -5 55 -10 72 -10 16 0
32 -4 35 -10 3 -5 19 -10 34 -10 27 0 28 1 17 34 -9 31 -14 34 -69 44 -33 6
-67 18 -76 27 -10 8 -32 20 -49 26 -27 9 -30 14 -21 25 9 11 26 13 71 9 34 -4
58 -2 58 3 0 15 -47 24 -94 17 -97 -12 -129 -13 -188 0 -35 7 -89 15 -120 19
l-58 5 0 -64z"/>
<path d="M0 320 c0 -93 2 -170 5 -170 13 0 95 45 95 52 0 4 7 8 15 8 8 0 15 4
15 9 0 7 23 18 40 18 11 0 95 46 101 55 3 5 8 9 10 8 2 -1 15 3 29 9 22 8 22
10 5 11 l-20 1 20 9 c17 7 17 9 3 9 -10 1 -18 5 -18 9 0 4 -20 13 -45 20 -26
7 -45 18 -45 26 0 7 -10 16 -22 19 -13 3 -39 11 -58 18 -19 6 -42 14 -50 16
-11 3 -12 6 -2 12 8 5 -1 12 -26 19 -22 7 -42 12 -46 12 -3 0 -6 -76 -6 -170z"/>
</g>
</svg>
